<?xml version="1.0" encoding="UTF-8"?><svg id="a" xmlns="http://www.w3.org/2000/svg" xmlns:xlink="http://www.w3.org/1999/xlink" viewBox="0 0 1024 1024"><defs><linearGradient id="b" x1="-.326" y1="511.853" x2="1024.032" y2="511.853" gradientUnits="userSpaceOnUse"><stop offset="0" stop-color="#141c31"/><stop offset="1" stop-color="#222c50"/></linearGradient><linearGradient id="c" x1="355.326" y1="520.64" x2="714.286" y2="520.64" gradientUnits="userSpaceOnUse"><stop offset="0" stop-color="#4c63ac"/><stop offset="1" stop-color="#222c50"/></linearGradient><linearGradient id="d" x1="555.172" y1="825.785" x2="710.304" y2="825.785" gradientUnits="userSpaceOnUse"><stop offset="0" stop-color="#141c31"/><stop offset="1" stop-color="#222c50"/></linearGradient><linearGradient id="e" x1="338.996" y1="696.864" x2="598.345" y2="696.864" xlink:href="#d"/><linearGradient id="f" x1="443.893" y1="629.833" x2="546.493" y2="629.833" xlink:href="#d"/><linearGradient id="g" x1="557.172" y1="521.573" x2="728.213" y2="521.573" xlink:href="#d"/><linearGradient id="h" x1="434.08" y1="476.684" x2="638.081" y2="476.684" xlink:href="#d"/><linearGradient id="i" x1="297.824" y1="395.241" x2="398.827" y2="395.241" xlink:href="#d"/><linearGradient id="j" x1="317.097" y1="168.746" x2="492.321" y2="168.746" xlink:href="#d"/></defs><circle cx="511.853" cy="511.853" r="506.179" fill="#f2eee6" stroke="url(#b)" stroke-miterlimit="10" stroke-width="12"/><path d="M420.888,366.309c4-2.909,8.174-5.623,12.519-8.142,24.911-14.435,53.901-21.663,86.964-21.663,21.711,0,40.342,3.733,55.885,11.18,15.536,7.458,28.491,16.893,38.85,28.304,10.367,11.419,18.012,23.65,22.949,36.687v-67.785h76.231v351.501h-76.231v-64.29c-5.437,14.913-14.193,27.842-26.276,38.783-12.097,10.952-26.164,19.336-42.191,25.157-16.035,5.821-33.674,8.734-52.916,8.734-33.063,0-61.687-7.335-85.852-22.009-24.18-14.678-42.811-35.751-55.877-63.242-13.082-27.484-19.615-60.33-19.615-98.535,0-39.592,6.78-73.024,20.354-100.277,11.201-22.503,26.27-40.634,45.208-54.403M456.895,435.427c-4.858,6.705-8.985,14.145-12.382,22.319-7.66,18.411-11.478,39.257-11.478,62.545s3.819,44.373,11.478,63.242c7.645,18.869,19.116,33.663,34.412,44.373,15.289,10.725,34.286,16.073,56.989,16.073,21.211,0,39.469-5.471,54.774-16.419,15.282-10.941,27.014-25.615,35.151-44.026,8.144-18.4,12.217-39.242,12.217-62.545,0-23.758-4.072-44.951-12.217-63.589-8.137-18.627-19.981-33.305-35.524-44.026-15.543-10.71-34.174-16.073-55.877-16.073-22.203,0-40.834,5.482-55.885,16.423-8.363,6.084-15.582,13.319-21.657,21.704" fill="url(#c)"/><rect x="446.546" y="340.758" width="51.842" height="93.551" transform="translate(-107.499 195.057) rotate(-21)" fill="#f2eee6"/><ellipse cx="415.705" cy="230.691" rx="19.856" ry="59.755" transform="translate(-53.831 156.092) rotate(-20)" fill="#141c31"/><polyline points="432.546 219.505 642.577 855.812 395.252 233.079" fill="#141c31"/><ellipse cx="419.396" cy="240.327" rx="8.49" ry="44.386" transform="translate(-56.904 157.935) rotate(-20)" fill="#f2eee6"/><path d="M603.164,736.408c30.511-10.043,59.09,12.925,82.215,34.987,17.212,16.422,23.593,44.42,15.351,67.366-8.242,22.945-30.57,39.347-53.722,39.462-14.126.071-27.792-5.323-41.879-6.438s-30.42,3.788-36.127,17.492c-4.09,9.819-2.169,22.783-9.676,29.983" fill="none" stroke="url(#d)" stroke-miterlimit="10" stroke-width="12"/><path d="M376.345,622.406c-40.331,21.603-33.65,60.657-24.05,86.93,10.635,29.107,42.54,44.523,72.253,54.063,28.325,9.095,74.453,8.589,90.811,3.961,24.253-6.862,56.063-18.693,80.777-28.484" fill="none" stroke="url(#e)" stroke-miterlimit="10" stroke-width="12"/><path d="M544.29,608.338c-26.147,10.319-30.253,70.936-67.701,64.115-32.779-5.971-4.926-95.684-30.348-84.87" fill="none" stroke="url(#f)" stroke-miterlimit="10" stroke-width="12"/><path d="M714.286,440.537c15.535-.189,4.168,36.758,0,54.568-8.31,35.506-17.543,51.104-29.023,61.137-37.061,32.391-19.2,28.295-56.29,35.876-13.861,2.833-43.266,1.756-69.867,10.811" fill="none" stroke="url(#g)" stroke-miterlimit="10" stroke-width="12"/><path d="M434.84,546.985c29.962-3.829,69.502-37.006,92.72-56.821,24.003-20.485,47.618-27.352,66.124-53.417,13.453-18.947,15.789-30.189,44.37-30.316" fill="none" stroke="url(#h)" stroke-miterlimit="10" stroke-width="12"/><path d="M396.842,236.311c-41.116,14.416-91.389,133.026-92.905,190.121-1.527,57.499,12.192,132.317,53.116,127.149" fill="none" stroke="url(#i)" stroke-miterlimit="10" stroke-width="12"/><path d="M336.448,193.839c-18.829-14.958-16.644-48.215-.309-66.169,16.336-17.954,41.674-23.167,65.187-22.328,24.524.876,50.032,8.05,67.447,26.383,17.415,18.333,23.934,49.688,9.985,71.097-6.868,10.541-17.505,15.748-28.947,19.947-13.371,4.906-28.547,5.495-41.998,9.745" fill="none" stroke="url(#j)" stroke-miterlimit="10" stroke-width="12"/></svg>